<svg id="Capa_1" enable-background="new 0 0 512 512" height="512" viewBox="0 0 512 512" width="512" xmlns="http://www.w3.org/2000/svg"><g><path d="m507.145 191.742.007-.012-53.433-32.117v-107.913c0-5.522-4.478-10-10-10h-375.439c-5.522 0-10 4.478-10 10v107.593c-17.824 10.823-35.643 21.641-53.468 32.458l.009.014c-2.98 1.809-4.821 5.033-4.821 8.535v260c0 5.522 4.477 10 10 10h204c5.523 0 10-4.478 10-10s-4.477-10-10-10h-168.254l209.066-126.916 211.139 126.916h-167.951c-5.522 0-10 4.478-10 10s4.478 10 10 10h204c5.522 0 10-4.478 10-10v-260c0-3.515-1.854-6.754-4.855-8.558zm-58.277 52.16c14.38-8.636 28.755-17.278 43.132-25.922v224.642l-186.861-112.321c47.909-28.795 95.825-57.597 143.729-86.399zm33.723-43.601c-9.623 5.786-19.247 11.569-28.871 17.352v-34.706zm-419.499 43.928 141.787 86.071-184.879 112.233v-224.464l13.409 8.14c9.894 6.008 19.787 12.015 29.683 18.02zm-4.812-26.318c-4.83-2.933-9.661-5.864-14.49-8.797l-14.52-8.814c9.67-5.869 19.341-11.74 29.01-17.611zm191.318 85.242-25.447 15.448-145.871-88.549v-168.352h355.44v167.974c-49.328 29.657-98.663 59.312-147.991 88.959l-25.789-15.502c-3.185-1.914-7.166-1.905-10.342.022z"/><circle cx="256" cy="460.3" r="10"/><path d="m349.787 243.699c0-5.522-4.478-10-10-10h-170c-5.522 0-10 4.478-10 10s4.478 10 10 10h170c5.523 0 10-4.477 10-10z"/><path d="m389.787 182.033c0-5.523-4.478-10-10-10h-250c-5.522 0-10 4.477-10 10 0 5.522 4.478 10 10 10h250c5.523 0 10-4.477 10-10z"/><path d="m169.787 130.366h170c5.522 0 10-4.477 10-10 0-5.522-4.478-10-10-10h-170c-5.522 0-10 4.478-10 10 0 5.523 4.478 10 10 10z"/></g></svg>